<svg id="light" enable-background="new 0 0 24 24" height="512" viewBox="0 0 24 24" width="512" xmlns="http://www.w3.org/2000/svg"><g><path d="m23.5 10h-10c-.276 0-.5-.224-.5-.5s.224-.5.5-.5h10c.276 0 .5.224.5.5s-.224.5-.5.5z"/></g><g><path d="m23.5 13h-10c-.276 0-.5-.224-.5-.5s.224-.5.5-.5h10c.276 0 .5.224.5.5s-.224.5-.5.5z"/></g><g><path d="m23.5 16h-10c-.276 0-.5-.224-.5-.5s.224-.5.5-.5h10c.276 0 .5.224.5.5s-.224.5-.5.5z"/></g><g><path d="m23.5 19h-10c-.276 0-.5-.224-.5-.5s.224-.5.5-.5h10c.276 0 .5.224.5.5s-.224.5-.5.5z"/></g><g><path d="m23.5 22h-10c-.276 0-.5-.224-.5-.5s.224-.5.5-.5h10c.276 0 .5.224.5.5s-.224.5-.5.5z"/></g><g><path d="m23.5 1h-23c-.276 0-.5-.224-.5-.5s.224-.5.5-.5h23c.276 0 .5.224.5.5s-.224.5-.5.5z"/></g><g><path d="m23.5 4h-23c-.276 0-.5-.224-.5-.5s.224-.5.5-.5h23c.276 0 .5.224.5.5s-.224.5-.5.5z"/></g><g><path d="m23.5 7h-23c-.276 0-.5-.224-.5-.5s.224-.5.5-.5h23c.276 0 .5.224.5.5s-.224.5-.5.5z"/></g><g><path d="m9.5 22h-8c-.827 0-1.5-.673-1.5-1.5v-10c0-.827.673-1.5 1.5-1.5h8c.827 0 1.5.673 1.5 1.5v10c0 .827-.673 1.5-1.5 1.5zm-8-12c-.276 0-.5.224-.5.5v10c0 .276.224.5.5.5h8c.276 0 .5-.224.5-.5v-10c0-.276-.224-.5-.5-.5z"/></g></svg>