<?xml version="1.0" standalone="no"?>
<!DOCTYPE svg PUBLIC "-//W3C//DTD SVG 20010904//EN"
 "http://www.w3.org/TR/2001/REC-SVG-20010904/DTD/svg10.dtd">
<svg version="1.0" xmlns="http://www.w3.org/2000/svg"
 width="700.000000pt" height="684.000000pt" viewBox="0 0 700.000000 684.000000"
 preserveAspectRatio="xMidYMid meet">
<metadata>
Created by potrace 1.16, written by Peter Selinger 2001-2019
</metadata>
<g transform="translate(0.000000,684.000000) scale(0.100000,-0.100000)"
fill="#000000" stroke="none">
<path d="M3318 4729 c10 -14 9 -17 -9 -22 -12 -3 -36 -4 -53 -1 l-31 4 30 -10
c17 -5 41 -23 53 -40 27 -36 31 -37 78 -5 61 41 106 32 143 -30 15 -25 27 -35
45 -35 14 0 41 -8 61 -17 30 -14 41 -15 68 -5 19 7 52 12 74 12 27 0 46 6 57
19 17 19 17 20 -3 30 -11 6 -26 11 -34 11 -7 0 -36 12 -63 26 -47 26 -75 31
-264 49 -30 2 -72 4 -93 4 -22 0 -46 6 -55 13 -15 11 -15 11 -4 -3z" fill="green"/>
<path d="M3980 4720 c9 -9 23 -29 31 -45 8 -17 32 -39 54 -51 30 -15 41 -27
43 -48 3 -21 -1 -29 -17 -33 -11 -3 -18 -9 -15 -14 8 -13 58 -11 73 4 10 10
19 5 44 -25 21 -24 42 -38 62 -40 24 -2 34 -11 52 -48 17 -37 32 -51 80 -75
53 -28 58 -33 64 -70 6 -45 34 -105 50 -105 5 0 14 -11 19 -25 14 -37 52 -85
66 -85 7 0 43 -15 79 -34 l67 -34 -56 -7 c-31 -4 -54 -11 -51 -15 2 -4 31 -3
64 2 79 12 118 1 214 -62 l77 -51 -22 -32 c-12 -18 -23 -34 -24 -35 -1 -2 -22
9 -46 26 -79 54 -124 72 -181 72 -54 0 -54 0 -49 -27 2 -16 8 -32 12 -38 5 -5
8 -42 9 -82 0 -40 8 -90 16 -111 12 -28 13 -46 6 -64 -5 -14 -7 -29 -3 -33 4
-4 -12 -5 -35 -4 -23 2 -45 0 -49 -4 -21 -21 484 1 542 23 21 9 33 4 80 -31
30 -23 57 -40 60 -37 11 12 -280 205 -338 223 -17 6 -19 13 -15 41 7 42 44
104 61 104 22 0 226 -141 226 -155 0 -8 11 -26 25 -41 14 -15 25 -35 25 -45 0
-17 53 -69 70 -69 4 0 20 -20 34 -44 30 -51 93 -109 148 -134 20 -9 38 -20 38
-23 0 -4 -27 -32 -61 -63 -67 -62 -125 -95 -211 -120 -63 -18 -322 -55 -402
-57 -33 -1 -40 -4 -22 -6 51 -8 283 16 374 38 122 30 202 70 280 143 l67 62
60 -12 c82 -17 196 -3 272 32 36 17 82 52 120 91 37 37 71 63 83 63 48 0 89
28 115 79 14 28 32 51 40 51 7 0 53 27 102 59 95 64 239 202 302 291 22 30 46
64 54 75 11 15 28 20 88 23 99 4 116 8 122 31 4 16 -3 20 -42 26 l-46 8 60 16
c48 13 60 20 60 36 0 18 -7 20 -58 20 -31 0 -57 1 -57 2 0 8 59 31 65 25 5 -4
5 -2 2 4 -4 7 0 14 8 18 8 3 15 15 15 26 0 28 -43 27 -102 -3 l-45 -23 18 31
c23 37 24 55 2 55 -26 0 -76 -44 -114 -99 l-34 -50 -62 -1 c-34 0 -64 -4 -67
-9 -11 -17 21 -42 67 -54 l47 -12 -53 -67 c-105 -132 -335 -318 -393 -318 -8
0 -27 -6 -42 -14 l-27 -14 0 43 c0 30 -7 52 -22 72 -13 15 -29 43 -38 61 -8
18 -24 46 -35 61 -17 25 -18 33 -9 61 16 44 1 74 -89 180 -27 32 -42 40 -80
45 -26 4 -62 11 -80 17 -18 5 -63 10 -100 9 -238 -2 -354 -67 -436 -244 -55
-117 -73 -195 -59 -248 6 -21 8 -39 6 -39 -3 0 -49 29 -102 65 -54 36 -103 65
-110 65 -7 0 -38 17 -69 39 -64 43 -115 70 -152 82 -18 5 -20 8 -6 8 12 1 16
6 12 17 -3 9 -6 18 -6 20 0 2 -8 4 -19 4 -39 0 -81 23 -100 55 -12 22 -30 35
-50 40 -35 7 -84 59 -79 84 2 10 15 17 36 19 17 2 32 5 32 8 0 16 -51 69 -82
85 -20 10 -49 35 -64 54 -20 27 -34 35 -58 35 -23 1 -46 14 -91 55 -51 46 -58
57 -49 72 9 13 24 18 58 17 29 0 45 4 43 10 -3 10 -68 45 -92 51 -12 2 -36 11
-95 35 -25 10 -76 28 -114 39 -38 12 -75 25 -81 29 -6 4 -4 0 5 -8z m2844
-392 c-5 -7 -23 -33 -42 -58 -19 -24 -30 -46 -24 -48 5 -1 30 11 55 28 47 32
104 56 113 48 2 -3 -25 -24 -61 -48 -65 -42 -85 -68 -42 -56 12 4 51 9 87 11
58 4 61 3 30 -6 -77 -24 -120 -41 -120 -49 0 -12 27 -20 66 -20 23 0 33 -4 28
-11 -3 -6 -30 -10 -63 -8 -89 4 -106 -5 -159 -84 -58 -87 -211 -242 -303 -306
-65 -46 -175 -99 -184 -89 -3 3 2 25 10 50 13 35 25 50 58 68 128 71 290 212
373 325 27 36 51 65 56 65 4 0 8 4 8 9 0 4 -23 11 -50 14 -81 10 -96 26 -25
27 59 1 60 1 85 41 14 23 42 56 63 75 38 35 54 43 41 22z m-962 -248 c20 -6
65 -30 100 -53 58 -39 61 -42 36 -45 -15 -2 -36 2 -48 8 -14 7 -20 7 -20 0 0
-14 43 -30 80 -30 22 0 33 -8 49 -36 l22 -36 -35 6 c-44 8 -95 -12 -125 -50
-33 -42 -26 -122 14 -164 32 -34 97 -48 145 -32 36 13 38 3 14 -78 -30 -101
-87 -161 -199 -212 -69 -30 -234 -33 -312 -4 -73 27 -139 80 -186 149 -21 31
-45 57 -52 57 -24 0 -55 51 -55 89 0 44 30 81 65 81 14 0 25 5 25 10 0 6 -9
10 -20 10 -25 0 -26 26 -4 100 33 112 102 179 229 225 60 21 83 24 155 21 47
-3 102 -10 122 -16z m237 -230 c86 -86 16 -221 -99 -190 -55 15 -80 50 -80
115 0 47 4 56 31 79 45 38 107 36 148 -4z m-1171 -108 c-1 -20 3 -37 10 -40 6
-2 27 -14 47 -28 20 -13 52 -32 73 -42 59 -30 102 -56 102 -64 0 -7 -36 -13
-147 -23 l-61 -6 -8 58 c-4 31 -15 71 -25 88 -24 38 -26 107 -4 99 11 -4 15
-18 13 -42z"/>
<path d="M5614 3910 c-48 -19 -84 -99 -70 -155 4 -14 21 -42 39 -61 80 -88
227 -35 227 81 0 104 -101 174 -196 135z m143 -44 c28 -30 33 -43 33 -86 0
-41 -5 -55 -29 -82 -26 -29 -36 -33 -80 -33 -41 0 -55 5 -81 30 -43 41 -56 91
-37 138 35 83 133 100 194 33z"/>
<path d="M5686 3578 c-46 -13 -126 -86 -126 -115 0 -57 25 -73 130 -85 41 -4
92 -11 113 -14 54 -9 111 18 132 63 50 106 -92 192 -249 151z"/>
<path d="M3523 4476 c-17 -6 -40 -19 -51 -29 -10 -9 -34 -17 -53 -17 -25 0
-42 -7 -57 -24 -33 -39 -82 -43 -150 -13 -90 40 -101 41 -125 19 -26 -23 -110
-66 -149 -76 -20 -4 -29 -14 -34 -34 -11 -53 -23 -70 -58 -83 -22 -8 -41 -24
-50 -43 -10 -21 -34 -41 -73 -61 -54 -28 -58 -32 -55 -61 2 -25 -4 -37 -33
-62 -19 -18 -48 -34 -63 -38 -15 -3 -48 -14 -74 -25 -26 -10 -57 -19 -70 -20
l-23 0 24 -17 c14 -9 37 -22 52 -29 26 -11 29 -9 48 23 38 64 155 88 172 36 3
-10 11 -8 31 8 24 18 26 24 16 45 -15 32 -4 53 34 70 28 12 36 12 55 0 20 -14
23 -12 49 33 27 48 84 109 137 149 24 18 38 21 77 16 48 -6 48 -5 68 33 28 54
55 67 137 70 39 1 87 5 107 9 28 5 46 2 77 -16 37 -20 44 -21 79 -10 34 12 42
11 78 -8 42 -23 79 -27 89 -11 3 6 14 10 24 10 11 0 21 9 24 21 5 19 10 21 53
14 41 -6 56 -15 111 -72 60 -61 76 -94 53 -108 -6 -4 -22 0 -35 9 -24 16 -55
21 -55 10 0 -3 11 -19 25 -36 30 -36 33 -74 5 -83 -11 -3 -39 3 -64 13 -43 20
-44 20 -49 1 -4 -14 -14 -19 -41 -19 -42 0 -58 -23 -33 -48 14 -13 20 -14 41
-3 19 11 30 11 59 0 30 -11 39 -10 61 4 14 9 32 17 41 17 32 0 97 -42 117 -76
11 -18 24 -34 28 -34 5 0 23 -12 40 -26 l31 -27 15 22 c9 12 31 23 55 27 48 8
55 17 31 41 -10 10 -24 33 -31 51 -8 19 -20 32 -31 32 -10 0 -20 6 -23 13 -3
9 -7 9 -20 -1 -24 -20 -51 -7 -81 38 -29 45 -33 70 -10 70 14 0 14 2 0 22 -9
12 -16 31 -16 41 0 10 -18 35 -41 57 -39 37 -44 60 -13 60 8 0 58 -20 109 -45
93 -44 95 -46 106 -90 6 -25 24 -62 40 -82 16 -19 29 -46 29 -59 0 -41 9 -51
41 -46 26 4 30 8 24 26 -14 51 -17 86 -6 86 19 0 66 -76 85 -137 10 -32 26
-69 35 -81 14 -20 19 -21 35 -9 16 11 17 22 11 81 -7 61 -11 71 -49 110 -23
23 -48 57 -55 76 -31 83 -29 80 -59 74 -25 -5 -34 0 -65 37 -21 23 -37 46 -37
50 0 13 -90 49 -120 49 -15 0 -33 7 -40 15 -11 14 -14 13 -27 -5 -20 -28 -55
-25 -148 11 -62 23 -97 31 -153 31 -59 1 -78 5 -104 24 -35 26 -81 30 -135 10z"/>
<path d="M1997 4350 c-23 -18 -40 -20 -182 -20 -164 0 -477 -25 -506 -40 -9
-5 -22 -23 -29 -40 -16 -39 -40 -40 -40 -2 0 31 -26 62 -52 62 -8 0 -18 3 -22
7 -10 11 -95 13 -101 3 -3 -5 -12 -7 -21 -3 -8 3 -24 -3 -35 -13 -15 -13 -22
-15 -31 -6 -17 17 -66 15 -181 -8 -128 -26 -141 -30 -131 -40 5 -5 61 2 124
15 153 32 174 32 198 -2 35 -52 36 -54 9 -48 -18 5 -31 1 -47 -15 -27 -27 -23
-47 13 -74 26 -19 30 -19 55 -5 19 10 27 23 27 41 -1 15 3 24 7 22 20 -12 6
-63 -26 -97 l-33 -35 -22 21 -22 22 -275 -56 c-233 -48 -275 -54 -271 -40 3 9
16 54 30 100 23 76 33 93 62 104 19 7 -1 16 -22 11 -20 -6 -50 -60 -59 -109
-2 -11 -10 -43 -19 -70 -8 -28 -15 -57 -15 -65 0 -9 24 -30 54 -48 l54 -33
185 36 c220 42 275 58 313 87 15 13 37 21 48 20 12 -2 53 5 91 14 79 18 93 19
153 9 49 -9 82 12 82 50 0 19 8 24 58 34 73 15 226 39 230 36 1 -1 -5 -19 -14
-40 -15 -37 -21 -135 -9 -155 12 -19 -5 -10 -59 35 -31 25 -58 45 -61 45 -10
0 -5 -113 6 -151 10 -33 9 -42 -10 -72 -23 -37 -27 -92 -11 -129 8 -17 7 -34
-3 -62 -11 -32 -21 -42 -53 -53 -50 -17 -71 -43 -80 -98 -8 -60 11 -136 51
-195 17 -26 35 -64 38 -85 8 -48 29 -79 77 -114 l40 -29 -103 -32 c-56 -18
-181 -59 -277 -91 -96 -32 -285 -90 -420 -129 -311 -90 -344 -102 -348 -128
-2 -12 -13 -22 -30 -25 -15 -3 -28 -4 -30 -2 -2 1 5 41 14 87 16 76 16 89 3
124 -16 41 -49 59 -50 27 0 -10 -7 7 -15 37 -18 68 -40 102 -62 98 -10 -2 -19
-16 -22 -33 l-5 -30 -14 33 c-15 37 -42 55 -65 46 -18 -7 -20 -41 -7 -94 26
-100 26 -98 -24 -42 -32 36 -55 52 -71 52 -39 0 -41 -28 -6 -90 68 -118 103
-198 100 -227 -4 -26 -5 -25 -27 22 -45 100 -91 119 -91 38 0 -56 21 -101 74
-160 32 -35 51 -47 86 -53 40 -8 59 -4 173 37 119 43 128 45 145 29 25 -22 50
-20 129 10 38 14 145 52 238 84 94 32 271 95 395 140 124 45 279 101 345 124
66 24 172 63 235 88 63 26 164 65 223 87 l108 41 37 -19 c32 -16 175 -61 237
-74 11 -3 1 -3 -22 -1 -28 2 -43 0 -43 -8 0 -6 3 -8 7 -5 3 4 26 -41 49 -101
24 -59 43 -97 44 -85 0 12 4 25 10 28 5 3 9 23 8 43 0 20 3 53 7 74 6 30 4 37
-11 41 -14 3 -12 5 6 5 30 0 132 -25 109 -27 -25 -2 -31 -29 -14 -61 8 -16 15
-53 15 -82 0 -30 6 -62 14 -73 7 -11 18 -36 25 -57 8 -24 20 -38 35 -42 13 -3
31 -18 41 -33 10 -16 31 -39 47 -52 25 -20 29 -30 25 -56 -6 -35 11 -60 56
-89 15 -9 32 -27 36 -39 5 -12 21 -32 36 -45 20 -18 26 -30 23 -55 -3 -29 2
-35 52 -65 30 -18 63 -42 73 -55 18 -22 18 -22 8 0 -6 12 -11 30 -11 40 0 11
-11 34 -25 52 -13 19 -27 55 -30 80 -3 25 -11 67 -17 94 -5 26 -7 54 -4 63 9
23 44 0 64 -44 9 -20 25 -44 35 -54 9 -10 17 -24 17 -30 0 -16 65 -88 79 -88
6 0 22 -22 35 -49 28 -55 52 -70 61 -40 8 23 63 27 71 4 4 -8 15 -15 25 -15
11 0 44 -20 75 -45 57 -47 69 -52 79 -35 10 16 40 12 68 -10 14 -11 35 -20 48
-20 12 0 30 -6 38 -14 20 -18 97 -22 170 -8 30 5 81 8 115 5 34 -2 81 0 106 6
39 8 33 9 -40 5 l-85 -4 50 16 c128 39 190 64 187 74 -1 6 3 8 9 4 17 -10 88
17 94 37 3 10 20 30 36 44 24 19 41 25 75 23 43 -1 90 24 79 43 -3 4 0 11 6
15 7 4 9 3 6 -3 -4 -6 7 -10 26 -11 30 0 30 1 8 9 -23 9 -20 12 60 87 120 112
155 142 167 142 6 0 14 4 17 10 10 17 -28 -1 -55 -26 -14 -12 -36 -28 -50 -34
-14 -6 -43 -22 -65 -35 -49 -30 -65 -31 -65 -4 0 19 72 94 152 159 34 28 89
84 172 175 l55 59 -37 13 c-48 17 -49 16 -72 -7 -13 -13 -20 -33 -20 -56 0
-36 -33 -104 -50 -104 -5 0 -44 -35 -87 -77 -43 -43 -100 -91 -126 -106 -39
-24 -47 -34 -47 -57 0 -18 -11 -43 -28 -62 -16 -18 -34 -46 -40 -63 -13 -31
-112 -95 -149 -95 -10 0 -31 -7 -47 -15 -15 -8 -40 -15 -55 -15 -14 0 -48 -7
-75 -15 -64 -20 -105 -19 -113 1 -7 19 10 32 57 40 31 5 119 42 160 65 8 5 28
14 43 20 28 11 64 71 77 129 4 17 30 42 87 80 53 35 86 65 92 82 5 15 23 41
40 59 17 17 31 40 31 49 0 27 38 68 70 75 19 4 36 19 50 43 21 34 21 37 4 49
-24 18 -27 17 -62 -17 -56 -53 -105 -32 -116 50 -5 41 -10 50 -26 50 -15 0
-20 -7 -20 -29 0 -16 -7 -34 -15 -41 -11 -9 -12 -17 -4 -31 21 -39 -30 -80
-80 -64 -14 4 -31 -4 -58 -28 -53 -47 -85 -67 -105 -67 -36 0 -28 12 95 155
26 30 47 59 47 63 0 4 -7 18 -16 30 -16 23 -16 23 -30 4 -8 -11 -11 -28 -8
-36 17 -44 -24 -86 -83 -86 -23 0 -67 -27 -102 -63 -60 -64 -80 -90 -86 -115
-8 -40 -34 -62 -81 -69 -22 -3 -51 -12 -67 -20 -25 -12 -32 -11 -78 11 -29 13
-57 22 -64 20 -6 -3 -18 2 -25 11 -16 19 -35 19 -68 -1 -23 -13 -33 -13 -67
-2 -33 11 -41 18 -43 41 -4 34 -25 44 -57 27 -29 -15 -81 0 -102 30 -8 11 -24
20 -36 20 -31 0 -41 9 -66 57 -28 55 -53 69 -85 47 -14 -9 -39 -14 -58 -12
-25 2 -34 -1 -36 -14 -2 -12 3 -18 16 -18 21 0 53 -33 70 -73 7 -15 26 -36 44
-45 17 -9 43 -28 57 -42 50 -47 153 -121 213 -151 56 -28 59 -32 45 -47 -14
-13 -23 -14 -64 -3 -26 7 -59 14 -73 17 -14 3 -42 15 -63 26 -28 15 -41 17
-51 9 -9 -8 -38 -9 -87 -5 -77 8 -79 9 -142 84 -8 10 -20 19 -27 22 -6 2 -16
26 -21 53 -10 56 -21 70 -44 62 -11 -5 -14 -14 -9 -31 7 -28 -8 -40 -39 -32
-26 6 -87 92 -87 123 0 12 -16 35 -36 53 -20 17 -37 39 -38 48 -2 9 -14 19
-27 20 -36 6 -49 21 -49 58 0 39 3 40 83 19 32 -8 68 -14 80 -14 12 1 -9 9
-48 19 l-70 18 45 3 c25 1 52 3 60 4 8 1 36 3 63 4 26 0 47 4 47 9 0 4 -63 6
-140 4 -177 -4 -391 31 -547 90 l-55 20 40 18 41 18 78 -39 c43 -21 96 -41
118 -44 34 -4 30 -1 -25 18 -71 25 -126 52 -134 65 -3 5 11 16 31 26 50 24 35
30 -18 8 -24 -11 -114 -45 -199 -77 -85 -31 -216 -81 -290 -111 -74 -29 -193
-73 -265 -97 -71 -25 -220 -77 -330 -117 -110 -39 -265 -93 -345 -120 -80 -26
-182 -62 -228 -79 -46 -17 -86 -31 -90 -31 -4 0 -13 14 -21 31 -7 17 -31 43
-53 59 -21 16 -35 30 -31 33 15 8 169 56 345 106 97 28 230 69 295 92 65 22
190 64 278 93 88 30 246 84 350 121 245 86 432 148 520 171 56 15 65 19 45 24
-21 5 -22 7 -7 13 27 10 20 25 -15 32 -74 15 -75 17 -13 36 174 51 275 84 275
89 0 3 -13 14 -29 25 -17 11 -29 21 -27 22 4 4 294 -145 370 -191 42 -25 78
-46 81 -46 17 0 -12 21 -87 65 -170 99 -167 97 -133 89 17 -4 61 -18 99 -31
79 -26 76 -26 76 -15 0 5 -27 17 -60 27 -32 10 -57 21 -55 26 3 4 32 10 65 14
68 8 73 20 20 47 -39 20 -58 14 -35 -12 19 -21 12 -25 -56 -35 l-44 -6 0 78
c0 43 4 84 8 91 6 8 2 12 -12 12 -11 0 -33 11 -49 25 -25 21 -31 23 -36 9 -3
-9 -6 -24 -6 -33 0 -10 -9 -26 -20 -36 -16 -14 -18 -26 -13 -61 3 -24 3 -44 1
-44 -14 0 -84 34 -90 44 -11 16 3 137 19 169 8 16 28 34 44 41 l31 13 -31 13
c-19 8 -31 20 -31 32 0 21 -73 58 -195 98 -38 12 -72 24 -73 26 -2 1 9 22 26
46 16 24 46 77 67 118 20 41 46 85 58 97 11 13 18 25 15 28 -11 11 -211 -15
-282 -36 -39 -12 -73 -21 -75 -21 -12 2 -41 113 -39 149 3 53 -3 58 -35 33z
m20 -111 c0 -56 5 -105 10 -110 4 -4 31 3 58 16 64 32 148 53 241 61 l74 7
-31 -54 c-62 -109 -129 -229 -129 -233 0 -2 30 -13 68 -25 37 -11 99 -34 137
-52 l70 -31 -45 -39 c-25 -21 -80 -62 -122 -91 -43 -29 -78 -56 -78 -59 0 -3
19 -15 42 -25 44 -19 188 -110 188 -118 0 -2 -26 -12 -57 -21 -32 -9 -89 -28
-128 -41 -38 -13 -87 -27 -108 -32 -56 -11 -50 -25 16 -41 l58 -14 -33 -21
c-57 -38 -146 -56 -203 -40 -17 4 -20 13 -19 58 0 46 11 75 72 197 61 124 72
154 78 214 8 94 -19 171 -85 235 -68 67 -111 85 -201 84 -75 0 -109 -11 -170
-55 -14 -10 -37 -21 -52 -24 -24 -6 -27 -4 -33 29 -10 49 1 99 37 169 l29 59
36 -76 c20 -42 39 -76 42 -76 3 0 16 24 29 54 26 60 59 95 147 155 33 22 60
41 60 41 0 0 1 -46 2 -101z m-893 29 l15 -43 -2 40 c-3 51 24 56 34 7 9 -46
19 -52 19 -12 0 28 2 31 15 20 22 -18 19 -61 -4 -67 -16 -4 -18 -11 -14 -44 4
-25 2 -39 -6 -39 -6 0 -11 -5 -11 -11 0 -6 9 -8 20 -4 24 7 26 -7 5 -25 -13
-11 -120 -39 -152 -40 -24 0 -13 30 13 40 25 10 26 14 22 62 -5 43 -11 56 -38
78 -21 17 -31 33 -28 46 6 34 33 27 58 -18 13 -23 25 -37 28 -30 2 7 -3 24
-12 38 -9 13 -14 29 -11 34 13 22 34 8 49 -32z m761 -3 c-35 -31 -59 -44 -80
-45 -16 0 -40 -3 -51 -6 -17 -5 -24 1 -34 28 -11 30 -13 31 -23 14 -35 -55
-40 -57 -162 -76 -66 -10 -144 -24 -173 -31 -63 -15 -72 -9 -75 51 -1 33 3 46
22 61 13 11 33 19 45 20 11 0 75 6 141 13 66 8 192 14 280 15 l159 1 -49 -45z
m-915 -210 c25 -30 -5 -46 -145 -77 -120 -26 -295 -58 -322 -58 -29 0 -101 42
-82 49 40 13 469 99 500 100 21 1 42 -5 49 -14z m1029 -27 c112 -54 168 -154
158 -283 -5 -63 -13 -88 -73 -209 -37 -75 -73 -136 -80 -136 -10 0 -10 -6 2
-27 7 -16 14 -35 14 -44 0 -26 -37 -66 -67 -72 -17 -4 -36 -19 -49 -38 -18
-29 -37 -39 -171 -85 l-151 -51 -38 21 c-41 23 -84 78 -84 107 0 18 2 18 40
-2 23 -12 43 -19 46 -16 3 3 -12 15 -34 26 -83 42 -142 147 -142 253 0 42 5
54 30 80 31 31 54 33 105 13 20 -8 20 -8 1 13 -26 29 -14 54 21 47 25 -5 26
-5 6 4 -28 12 -33 47 -5 36 9 -4 30 -12 45 -17 27 -10 27 -11 11 -35 -26 -40
-34 -79 -20 -98 12 -16 15 -16 44 -1 29 15 66 55 58 63 -2 2 -17 -10 -34 -27
-34 -34 -62 -39 -62 -12 0 29 53 105 99 141 23 18 40 35 37 38 -2 2 0 18 5 35
11 39 -19 113 -50 123 -12 3 -21 13 -21 20 0 18 71 29 154 23 83 -5 129 -35
193 -127 35 -51 54 -70 70 -71 35 0 39 40 10 102 -52 116 -148 181 -265 182
-67 0 -69 9 -6 31 61 22 150 19 203 -7z m-103 -59 c91 -34 173 -134 174 -212
0 -41 -14 -31 -73 48 -29 38 -72 83 -95 100 -43 29 -46 30 -158 29 -139 -1
-153 14 -39 42 75 18 128 16 191 -7z m-247 -103 c45 -24 65 -91 40 -139 -35
-68 -108 -86 -160 -39 -27 24 -32 36 -33 76 -1 43 3 51 36 82 41 37 72 43 117
20z m-1450 -891 c22 -42 27 -68 32 -165 7 -140 12 -102 9 73 -2 137 7 158 38
90 13 -29 17 -66 16 -155 0 -65 1 -116 3 -115 1 2 10 43 18 92 17 97 21 107
35 85 16 -25 10 -90 -14 -180 -39 -141 -39 -139 -20 -103 20 37 48 50 69 33
33 -28 17 -48 -62 -78 -115 -44 -117 -44 -162 -26 -58 23 -119 105 -136 182
-11 55 20 39 51 -25 37 -77 53 -96 71 -82 31 27 -4 140 -83 262 -24 37 -44 72
-44 77 0 21 28 8 67 -32 48 -50 93 -138 93 -185 0 -18 4 -33 10 -33 14 0 2
107 -26 228 -29 123 -28 114 -7 110 9 -2 28 -25 42 -53z m4149 -227 c2 -20
-10 -40 -56 -88 -117 -121 -208 -135 -153 -24 23 45 46 65 68 57 7 -3 36 16
65 41 29 25 57 45 63 43 5 -2 11 -15 13 -29z m-250 -224 c32 -9 28 -38 -14
-83 -69 -77 -244 -122 -354 -91 -44 12 -140 69 -154 92 -17 28 -2 30 64 8 52
-17 68 -19 96 -10 19 7 47 9 63 5 24 -5 32 -1 51 25 19 27 28 31 51 26 17 -3
45 2 71 14 44 20 85 24 126 14z m-710 -160 c20 -9 53 -20 72 -25 19 -4 67 -17
105 -28 39 -11 82 -18 97 -15 14 3 50 -2 79 -10 29 -9 74 -16 100 -16 52 0 70
-14 47 -36 -19 -20 -138 -30 -166 -15 -15 8 -28 9 -39 2 -12 -6 -24 -6 -38 2
-11 6 -40 9 -65 8 -35 -2 -50 2 -64 18 -11 12 -28 21 -39 21 -26 0 -147 79
-147 96 0 18 12 18 58 -2z"/>
<path d="M1835 3769 c-42 -12 -82 -53 -94 -94 -41 -150 181 -232 248 -92 21
43 19 85 -7 133 -24 45 -93 70 -147 53z m95 -24 c74 -39 80 -168 8 -202 -44
-21 -60 -23 -100 -11 -54 16 -88 59 -88 110 0 34 7 47 39 79 43 44 88 51 141
24z"/>
<path d="M1428 3545 c-37 -21 -52 -71 -38 -127 35 -130 162 -226 300 -228 98
0 170 59 170 141 0 65 -23 79 -130 79 -49 0 -100 5 -114 11 -13 7 -40 34 -58
60 -18 27 -47 56 -65 64 -37 18 -31 18 -65 0z"/>
<path d="M855 4255 c-5 -2 -22 -6 -36 -9 -22 -5 -32 -18 -53 -72 -15 -37 -25
-69 -22 -71 2 -3 30 1 62 8 51 11 58 16 71 48 8 19 17 50 20 68 5 28 3 33 -13
32 -11 0 -23 -2 -29 -4z"/>
<path d="M3281 4199 c-13 -5 -37 -20 -53 -34 -16 -14 -42 -25 -56 -25 -20 0
-32 -9 -44 -30 -10 -18 -36 -39 -60 -50 -33 -14 -39 -20 -26 -25 26 -10 58
-68 58 -104 0 -38 -31 -71 -66 -71 -14 0 -23 -4 -20 -8 5 -8 45 -4 121 14 17
4 37 13 46 20 37 32 234 48 282 22 33 -17 12 -33 -54 -38 -35 -3 -77 -13 -94
-22 -16 -8 -48 -19 -70 -22 -52 -9 -85 -37 -85 -71 0 -47 -17 -65 -60 -65 -45
0 -47 -3 -22 -28 16 -16 22 -17 37 -5 11 7 28 13 39 13 14 0 26 12 36 33 20
42 84 79 125 72 22 -4 35 0 47 14 9 11 36 25 60 31 38 11 44 10 58 -7 27 -34
61 -36 93 -5 26 25 34 27 94 24 36 -1 78 -9 94 -17 15 -8 36 -15 46 -15 9 0
29 -11 43 -25 14 -14 39 -37 55 -52 29 -27 30 -28 7 -31 -12 -2 -37 6 -56 17
-18 12 -49 21 -68 21 -19 0 -39 5 -46 12 -9 9 -18 9 -37 0 -14 -7 -40 -12 -58
-12 -39 -1 -97 -44 -81 -60 7 -7 25 -4 57 10 37 16 58 20 95 14 80 -11 117
-51 77 -84 -25 -21 -18 -49 18 -63 18 -8 40 -22 50 -31 18 -19 23 -66 7 -66
-5 0 -22 -13 -37 -30 -23 -26 -33 -30 -79 -30 -61 0 -140 33 -150 62 -7 24 12
47 53 65 39 16 35 35 -10 56 -28 14 -34 14 -69 -4 -20 -10 -43 -19 -51 -19 -8
0 -19 -11 -25 -25 -10 -21 -9 -28 8 -45 10 -10 33 -26 49 -35 33 -17 41 -50
19 -74 -11 -10 -8 -10 14 0 36 16 82 -3 105 -42 l18 -29 32 35 c44 48 82 46
109 -6 18 -35 47 -38 77 -6 12 12 34 28 49 34 37 17 43 49 19 103 -23 51 -14
80 23 80 13 0 29 7 37 16 10 13 10 20 -4 44 -12 20 -15 41 -11 71 6 53 -23
109 -56 109 -13 0 -28 13 -41 35 -14 24 -28 35 -44 35 -12 0 -28 7 -35 15 -7
8 -20 15 -30 15 -9 0 -29 9 -43 20 -14 11 -32 20 -41 20 -9 0 -16 8 -16 20 0
28 -18 33 -71 21 -34 -8 -50 -7 -74 5 -24 12 -38 12 -81 3 -63 -14 -84 -8 -84
25 0 16 13 34 39 55 34 27 47 31 100 31 58 0 76 10 49 26 -7 4 -53 9 -103 10
-73 2 -98 -1 -132 -17 -23 -11 -53 -19 -65 -17 -28 4 -35 31 -13 50 43 35 56
50 52 61 -5 15 -45 19 -76 6z"/>
<path d="M3976 3235 c-10 -14 -28 -30 -41 -35 -13 -5 -29 -22 -37 -37 -8 -17
-25 -32 -45 -38 -18 -5 -33 -12 -33 -16 0 -4 -12 -22 -27 -39 -24 -29 -31 -32
-66 -27 -30 4 -46 0 -74 -19 -20 -13 -49 -24 -66 -24 -41 0 -100 46 -94 72 3
11 -2 32 -11 48 -17 28 -18 28 -41 9 -19 -16 -34 -18 -83 -14 -33 3 -64 2 -70
-1 -16 -10 96 -104 125 -104 22 -1 108 -61 104 -73 -6 -19 -37 -19 -106 0 -57
16 -68 24 -88 62 -1 1 -12 -6 -24 -17 -12 -12 -36 -24 -52 -28 l-31 -6 41 -22
c23 -11 51 -33 62 -47 26 -33 95 -46 146 -28 29 11 37 10 52 -3 10 -8 32 -15
50 -15 22 0 40 -9 63 -31 18 -18 42 -32 55 -32 13 0 35 -5 49 -11 21 -10 30
-9 52 6 19 12 38 16 65 12 22 -3 41 -2 44 3 3 4 25 17 50 29 25 12 45 28 45
36 0 14 18 24 92 53 19 8 25 16 22 29 -8 28 37 65 80 66 24 1 33 4 26 11 -5 5
-10 19 -10 29 0 18 -1 18 -22 3 -13 -9 -33 -23 -45 -32 -45 -32 -43 -2 2 48
41 46 44 53 39 89 -5 28 -2 46 11 65 11 18 14 29 7 36 -16 16 -39 3 -57 -33
-18 -33 -101 -119 -116 -119 -4 0 -24 -15 -43 -32 -56 -54 -108 -88 -133 -88
-39 0 -27 26 48 102 45 46 80 91 95 126 27 62 27 62 15 62 -5 0 -16 -11 -25
-25z m-153 -309 c82 1 94 -9 41 -35 -60 -30 -265 -19 -278 15 -12 31 4 36 83
27 42 -4 111 -8 154 -7z"/>
</g>
</svg>
